Patient4_TMGait_0pt5_01_right_25_EMG.mot
version=1
nRows=16
nColumns=33
inDegrees=no
endheader
time	1LAddLong	2LGlutMax	3LGlutMed	4LIliopsoas	5LSemiMemb	6LBicFemLong	7LRecFem	8LVastMed	9LVastLat	10LGasMed	11LTibAnt	12lTibPost	13LPeroneusLong	14LSol	15LExtDigLong	16LFlexDigLong	17RAddLong	18RGlutMax	19RGlutMed	20RIliopsoas	21RSemiMemb	22RBicFemLong	23RRecFem	24RVastMed	25RVastLat	26RGasMed	27RTibAnt	28RTibPost	29RPeroneusLong	30RSol	31RExtDigLong	32RFlexDigLong
34.203	0.020294	-0.024719	0.063324	0.002289	0.00473	0.026245	-0.077362	0.019226	-0.021973	-0.053864	0.050659	-0.012665	0.069733	0.058594	-0.2002	0.01297	0.001526	0.006714	0.28778	-0.065155	-0.024109	-0.10315	0.037384	-0.11673	0.016327	-0.018616	-0.003357	-0.010986	-0.22186	0.005341	-0.003052	-0.016022
34.204	0.005951	0.005951	0.012665	0.001221	0.006714	0.036316	0.002899	-0.036926	0.041962	-0.046692	-0.007782	-0.007477	0.081329	0.03006	-0.10559	0.012054	0.019226	0.06134	0.61462	-0.14908	0.000305	-0.028992	0.034485	-0.12192	0.021362	-0.018616	0.039368	-0.011444	-0.1358	-0.000153	-0.005493	-0.012207
34.205	-0.004883	0.027618	0.050049	-0.001831	0.013428	0.052338	0.063934	-0.003815	0.02594	-0.032806	-0.15228	0.005951	0.057526	0.033264	-0.55939	0.02182	0.00885	0.026245	0.58548	-0.068817	-0.013428	0.12177	0.041962	-0.09491	0.024414	-0.015106	0.10346	-0.011902	-0.070343	0.012817	-0.00473	-0.014801
34.206	0.006409	-0.007324	0.15121	0.00946	0.013733	0.075073	0.12665	-0.06424	0.013275	0.001526	-0.018463	0.015717	-0.068665	0.096283	-0.15686	0.01236	0.001678	0.019226	-0.035858	0.019379	-0.000458	0.20752	0.006104	-0.068207	0.031738	-0.021973	0.092621	-0.015259	-0.04715	0.006256	-0.003662	-0.013733
34.207	0.002899	-0.037384	0.077667	0.011597	0.002136	0.046844	0.057678	0.00473	0.005341	-0.002136	0.16617	0.007629	-0.087891	0.16449	-0.34592	0.012054	-0.01297	0.010223	-0.63828	0.023193	-0.028687	0.092926	0.008087	-0.069733	0.024567	-0.018005	0.033264	-0.012665	0.20966	0.015106	-0.000305	-0.015717
34.208	-0.006561	-0.026703	0.098724	0.00351	0.005951	0.045624	-0.056	-0.009308	-0.000305	-0.000153	0.18997	-0.004425	-0.063477	0.10437	-0.39719	0.012665	-0.005035	-0.063629	-0.30121	-0.091553	-0.04364	0.044708	0.002747	-0.02182	0.031281	-0.006256	-0.08194	-0.010986	0.44876	0.014038	-0.004272	-0.016785
34.209	0.005798	-0.047455	-0.008087	0.003815	0.010681	0.036469	-0.057831	0.003357	0.048981	0.004425	0.19196	0.015106	0.007019	-0.1033	-0.099182	0.007782	0.003204	-0.06073	-0.36972	-0.11795	-0.061951	0.024414	0.030823	-0.073853	0.026093	-0.005341	-0.075989	-0.013123	0.15198	0.018768	-0.007935	-0.012512
34.21	-0.003357	-0.061798	-0.029144	0.000763	0.005951	0.042419	-0.028229	-0.003357	0.016937	0.010529	0.1651	0.007172	0.037384	-0.20996	-0.072479	-0.001221	0.012817	-0.082245	-0.10254	-0.054932	0.002289	0.002136	-0.000763	-0.10864	0.011292	-0.022888	0.012817	-0.014801	-0.2153	0.024567	-0.001526	-0.008545
34.211	0.002899	0.010376	-0.016785	-0.002441	0.007782	0.020752	-0.005493	-0.003052	-0.013275	0.017395	-0.01297	-0.000763	0.005798	-0.34332	0.083313	0.000458	0.006561	-0.079346	-0.12161	0.14786	0.018616	-0.042725	0.012512	-0.033417	0.021362	-0.018463	0.034637	-0.013275	0.001526	0.047455	-0.001831	-0.002747
34.212	-0.005188	0.028229	-0.011902	0.012817	0.002441	0.013428	0.058746	0.004272	0.005646	0.043335	-0.12589	0.006714	-0.053253	-0.33432	0.36835	0.000458	0.009308	0.006409	-0.4042	0.29388	-0.004883	-0.042419	-0.011139	-0.093079	0.041962	-0.012207	0.049591	-0.014191	-0.056305	0.046539	-0.00946	-0.001678
34.213	-0.002441	0.042572	-0.023193	-0.002441	0.008698	-0.026703	0.1207	0.00351	0.026703	0.040283	-0.045319	0.015411	-0.074005	-0.22934	0.75089	-0.003052	0.012665	-0.022888	-0.28381	0.23514	-0.00946	-0.033875	-0.011902	-0.09491	0.027924	-0.018158	0.046082	-0.014343	-0.3064	0.006866	0	-0.001373
34.214	-0.005646	0.050659	-0.11627	-0.00412	0.004425	-0.032043	0.15671	0.007019	0.036621	0.002747	0.12604	0.00412	-0.053558	-0.062714	0.13168	-0.003815	0.001068	-0.052338	0.16693	0.069427	-0.025635	-0.049744	-0.016479	-0.071716	0.013123	-0.014038	0.043182	-0.01297	-0.20996	0.005646	-0.001221	-0.001373
34.215	-0.005341	0.021667	0.15488	-0.005493	0.00946	-0.01709	0.15869	0.007477	0.10635	-0.009766	0.1738	0.014496	-0.040741	-0.040741	-0.084534	0.005646	0.00412	-0.027161	0.4689	-0.040741	-0.01236	-0.023041	-0.001526	-0.12268	0.008698	-0.011597	0.009766	-0.015106	0.2655	0.00885	-0.001984	0.001068
34.216	0.005493	-0.032043	0.17716	0.0177	0.017395	-0.028076	0.10208	0.009766	0.2243	0.001678	0.036774	-0.013733	-0.03418	-0.030975	-0.024872	-0.004425	0.009613	-0.050201	0.2977	-0.022736	-0.038605	-0.018005	-0.008087	-0.096436	0.006256	-0.016174	-0.014954	-0.011902	0.26962	0.04425	0.001221	-0.002899
34.217	0.005341	-0.03952	0.14099	0.034332	0.013123	0.089569	0.063019	0.004425	0.13199	-0.023499	-0.12817	0.029144	-0.000458	-0.014954	0.045166	-0.010681	0.015564	-0.091553	-0.053101	-0.083313	-0.033569	-0.023651	-0.01358	-0.11078	0.009308	-0.019226	0.014191	-0.01236	0.11551	0.027618	0.001068	0.003967
34.218	0.005341	-0.048065	0.086823	0.021973	0.015106	0.11322	0.090027	0.010529	0.049286	-0.046692	-0.10696	0.013275	0.030212	-0.005493	0.46463	-0.001526	0.025024	-0.015717	-0.29007	-0.10025	0.019684	-0.053711	-0.043182	-0.083618	0.000763	-0.012817	0.031738	-0.011444	0.005493	0.031281	-0.000916	0.006104
